<?xml version="1.0" encoding="UTF-8" standalone="no"?>
<!-- Created with Inkscape (http://www.inkscape.org/) -->

<svg
   width="210mm"
   height="297mm"
   viewBox="0 0 210 297"
   version="1.1"
   id="svg1"
   inkscape:version="1.3.2 (091e20e, 2023-11-25)"
   sodipodi:docname="flower.svg"
   xmlns:inkscape="http://www.inkscape.org/namespaces/inkscape"
   xmlns:sodipodi="http://sodipodi.sourceforge.net/DTD/sodipodi-0.dtd"
   xmlns="http://www.w3.org/2000/svg"
   xmlns:svg="http://www.w3.org/2000/svg">
  <sodipodi:namedview
     id="namedview1"
     pagecolor="#ffffff"
     bordercolor="#000000"
     borderopacity="0.25"
     inkscape:showpageshadow="2"
     inkscape:pageopacity="0.0"
     inkscape:pagecheckerboard="0"
     inkscape:deskcolor="#d1d1d1"
     inkscape:document-units="mm"
     inkscape:zoom="0.81776772"
     inkscape:cx="432.27434"
     inkscape:cy="761.2186"
     inkscape:window-width="1728"
     inkscape:window-height="990"
     inkscape:window-x="0"
     inkscape:window-y="38"
     inkscape:window-maximized="1"
     inkscape:current-layer="layer1" />
  <defs
     id="defs1" />
  <g
     inkscape:label="Layer 1"
     inkscape:groupmode="layer"
     id="layer1">
    <path
       d="m 114.71362,135.97798 c 14.60066,-7.31264 26.62795,-1.08075 26.62795,-1.08075 l -9.81429,8.68423 12.57558,1.89535 c 0,0 -0.92412,6.98814 -14.56032,12.72992 -12.10789,5.07502 -27.14038,-2.98278 -27.14038,-2.98278 0,0 3.97406,-15.07055 12.31374,-19.24597 z m -64.544806,16.29228 12.284647,-2.85525 -8.92374,-7.50952 c 0,0 4.978776,-5.97005 19.438456,-2.82835 14.459595,3.14161 18.673076,19.50104 18.673076,19.50104 0,0 -12.685182,6.0103 -21.951271,4.94748 -14.02557,-1.6111 -19.521168,-11.2554 -19.521168,-11.2554 z m 43.036606,34.30755 c -4.887016,10.7653 -16.733155,14.8356 -16.733155,14.8356 l 0.912959,-12.18848 -11.662533,5.28983 c 0,0 -2.383165,-5.56275 4.945117,-18.43374 7.326083,-12.85077 23.495309,-12.98499 23.495309,-12.98499 0,0 2.895505,14.99215 -0.957697,23.47958 z M 81.621117,134.59962 c -5.242812,-12.41895 1.955736,-24.46197 1.955736,-24.46197 l 7.896609,9.52564 3.356509,-10.68699 c 0,0 6.484669,2.46368 10.268529,15.46888 4.13516,14.21349 -8.216634,28.29945 -8.216634,28.29945 0,0 -11.635808,-9.55246 -15.260749,-18.14281 z m 25.867143,53.19324 c -11.018177,-9.73825 -7.15821,-25.86714 -7.15821,-25.86714 0,0 13.71451,-1.0651 20.85936,4.83331 9.05127,7.44914 12.94253,20.02463 12.94253,20.02463 l -12.55993,-3.07674 3.43034,11.38065 c 0,0 -8.35989,0.78991 -17.51181,-7.29691 z"
       style="display:inline;fill:#ea6d93;stroke-width:0px"
       id="path1"
       sodipodi:insensitive="true" />
  </g>
</svg>
